<?xml version="1.0" encoding="UTF-8"?>
<svg xmlns="http://www.w3.org/2000/svg" width="1200" height="836" viewBox="0 0 1200 836" fill="none">
  <circle cx="599.849" cy="417.849" r="404.849" fill="#006FFF"></circle>
  <path opacity="0.2" d="M697.691 570.547C964.399 570.547 1180.61 560.866 1180.61 548.924C1180.61 536.982 964.399 527.301 697.691 527.301C430.983 527.301 214.773 536.982 214.773 548.924C214.773 560.866 430.983 570.547 697.691 570.547Z" fill="#092047"></path>
  <path d="M218.883 494.695L221.292 506.063H357.58C357.58 506.063 336.884 416.316 302.822 408.408C268.76 400.5 232.248 424.883 228.006 444.262C223.763 463.64 218.883 494.695 218.883 494.695Z" fill="#003A8D"></path>
  <path d="M361.012 313.117C369.461 290.68 382.889 270.451 400.284 253.952C429.403 226.294 469.231 211.199 548.68 202.097C628.13 192.995 661.121 195.281 724.384 205.742C787.647 216.204 847.266 261.654 863.061 273.309C878.856 284.965 899.161 309.76 934.87 311.387C970.579 313.014 951.077 321.931 922.699 321.931C894.322 321.931 607.619 322.322 594.604 321.931C581.589 321.539 377.26 328.809 368.92 325.143C366.565 324.139 364.559 322.462 363.152 320.323C361.745 318.183 361.001 315.677 361.012 313.117V313.117Z" fill="#092047"></path>
  <path d="M484.086 508.762L500.025 518.235H692.059C692.059 518.235 699.988 395.724 594.735 393.294C489.481 390.864 473.748 489.836 484.086 508.762Z" fill="#003A8D"></path>
  <path d="M663.191 487.388C663.191 451.885 644.019 422.663 619.389 419.08L581.559 418.709V556.129L619.389 555.759C644.019 552.134 663.191 522.933 663.191 487.388Z" fill="#092047"></path>
  <path d="M580.104 554.064C607.102 554.064 628.993 523.318 628.993 485.384C628.993 447.451 607.102 416.705 580.104 416.705C553.106 416.705 531.215 447.451 531.215 485.384C531.215 523.318 553.106 554.064 580.104 554.064Z" fill="#5B9DFF"></path>
  <path d="M581.548 526.382C595.12 526.382 606.117 508.919 606.117 487.378C606.117 465.837 595.12 448.395 581.548 448.395C567.977 448.395 556.98 465.858 556.98 487.378C556.98 508.898 567.977 526.382 581.548 526.382Z" fill="white"></path>
  <path d="M991.806 487.388C991.806 451.885 972.612 422.663 948.024 419.08L910.152 418.709V556.129L948.024 555.759C972.592 552.134 991.806 522.933 991.806 487.388Z" fill="#092047"></path>
  <path d="M910.158 556.121C937.157 556.121 959.047 525.355 959.047 487.422C959.047 449.488 937.157 418.742 910.158 418.742C883.16 418.742 861.27 449.509 861.27 487.422C861.27 525.334 883.16 556.121 910.158 556.121Z" fill="#5B9DFF"></path>
  <path d="M910.177 526.382C923.749 526.382 934.745 508.919 934.745 487.378C934.745 465.837 923.749 448.395 910.177 448.395C896.606 448.395 885.609 465.858 885.609 487.378C885.609 508.898 896.606 526.382 910.177 526.382Z" fill="white"></path>
  <path d="M910.179 448.43C908.243 448.438 906.325 448.793 904.516 449.48C915.41 453.599 923.379 468.982 923.379 487.393C923.379 505.803 915.327 521.269 904.516 525.326C906.321 526.031 908.241 526.394 910.179 526.397C923.75 526.397 934.747 508.954 934.747 487.393C934.747 465.831 923.75 448.43 910.179 448.43Z" fill="#E0EEFF"></path>
  <path d="M368.98 487.388C368.98 451.885 349.808 422.663 325.219 419.08L287.348 418.709V556.129L325.219 555.759C349.808 552.134 368.98 522.933 368.98 487.388Z" fill="#092047"></path>
  <path d="M287.348 556.129C314.346 556.129 336.278 525.239 336.278 487.388C336.278 449.537 314.387 418.709 287.389 418.709C260.391 418.709 238.5 449.476 238.5 487.388C238.5 525.301 260.35 556.129 287.348 556.129Z" fill="#5B9DFF"></path>
  <path d="M287.352 526.382C300.903 526.382 311.9 508.919 311.9 487.378C311.9 465.837 300.903 448.395 287.352 448.395C273.802 448.395 262.805 465.858 262.805 487.378C262.805 508.898 273.802 526.382 287.352 526.382Z" fill="white"></path>
  <path d="M287.328 448.43C285.387 448.448 283.464 448.803 281.645 449.48C292.559 453.599 300.529 468.982 300.529 487.393C300.529 505.803 292.477 521.269 281.645 525.326C283.457 526.029 285.384 526.392 287.328 526.397C300.899 526.397 311.896 508.954 311.896 487.393C311.896 465.831 300.899 448.43 287.328 448.43Z" fill="#E0EEFF"></path>
  <path d="M1143.09 449.982C1137.84 408.445 1052.48 291.412 999.982 302.698C979.091 307.005 957.729 308.583 936.431 307.393C915.767 306.467 896.179 297.92 881.446 283.402C841.721 243.615 726.46 160.541 486.607 206.032C412.47 220.138 372.313 268.162 353.841 298.353C349.385 305.491 343.359 311.519 336.222 315.976C329.084 320.434 321.024 323.203 312.654 324.074C283.679 327.307 240.041 341.022 219.674 392.032C197.577 447.429 209.192 485.897 218.459 504.349C218.732 504.94 219.207 505.415 219.798 505.688C220.399 505.962 221.078 506.013 221.713 505.832C222.355 505.667 222.917 505.277 223.295 504.733C223.673 504.188 223.843 503.526 223.772 502.867C219.86 456.799 256.228 405.212 292.596 426.671C322.209 444.113 327.152 485.836 327.605 506.532C327.701 509.745 329.045 512.793 331.352 515.031C333.659 517.268 336.747 518.519 339.961 518.518H496.904C498.582 518.516 500.243 518.173 501.784 517.508C503.334 516.838 504.734 515.865 505.903 514.646C507.049 513.416 507.932 511.966 508.498 510.383C509.071 508.802 509.303 507.118 509.178 505.441C508.024 487.607 508.23 455.193 521.389 431.304C540.48 396.769 599.645 388.923 630.02 428.153C652.797 457.684 660.705 497.1 663.217 514.79C663.587 517.483 664.842 519.976 666.784 521.877C668.727 523.779 671.246 524.98 673.946 525.293C709.511 529.412 835.832 542.097 931.983 535.425C1035.71 528.238 1092.45 524.902 1127.79 522.636C1132.15 522.419 1136.28 520.632 1139.43 517.603C1142.57 514.575 1144.52 510.511 1144.9 506.161C1146.1 487.42 1145.49 468.607 1143.09 449.982V449.982ZM652.076 316.31C592.149 317.731 376.864 322.344 370.995 315.939C364.158 308.485 374.723 298.497 397.767 265.053C420.811 231.609 504.626 202.943 551.703 214.269C588.092 222.98 637.269 278.892 657.78 303.913C658.699 305.009 659.285 306.345 659.469 307.764C659.641 309.167 659.427 310.591 658.851 311.882C658.254 313.176 657.305 314.275 656.112 315.054C654.93 315.852 653.543 316.295 652.117 316.331L652.076 316.31ZM706.855 315.939C704.16 315.932 701.494 315.381 699.017 314.319C696.54 313.258 694.303 311.708 692.439 309.761C670.507 286.964 593.59 208.338 572.42 202.963C572.42 202.963 703.91 184.965 803.273 237.684C839.6 256.98 858.876 276.338 873.847 289.168C895.553 307.702 926.587 315.816 926.587 315.816L706.855 315.939Z" fill="#8DBCFF"></path>
  <path d="M857.268 404.01C857.268 404.01 783.379 373.491 749.832 360.579C716.285 347.666 684.633 337.637 685.271 351.291C685.91 364.944 733.069 380.472 741.141 395.938C749.214 411.403 879.55 423.842 857.268 404.01Z" fill="#8DBCFF"></path>
  <path d="M1077.18 340.855C1072.52 349.817 1067.04 358.324 1060.8 366.268C1059.25 368.287 1058.29 370.697 1058.03 373.23C1057.76 375.763 1058.21 378.319 1059.31 380.614C1060.42 382.909 1062.14 384.853 1064.28 386.228C1066.42 387.604 1068.9 388.358 1071.45 388.406C1084.6 388.822 1097.49 384.699 1107.96 376.729C1098.61 364.047 1088.36 352.057 1077.28 340.855H1077.18Z" fill="#8DBCFF"></path>
  <path d="M830.851 443.678C830.851 443.678 799.816 423.62 790.694 434.576C781.571 445.532 787.666 473.209 806.53 471.521C825.394 469.832 864.686 455.911 830.851 443.678Z" fill="#003A8D"></path>
  <path d="M1114.71 414.932C1114.71 414.932 1110.35 417.115 1114.71 433.075C1119.08 449.035 1127.07 459.847 1129.97 447.491C1132.88 435.135 1125.53 409.908 1114.71 414.932Z" fill="#003A8D"></path>
  <path d="M716.468 350.982C716.468 350.982 693.403 343.054 690.026 349.15C686.649 355.245 718.61 367.087 729.298 377.981C739.986 388.874 747.544 394.455 762.762 396.515C777.981 398.574 803.208 398.203 793.488 388.277C783.768 378.351 730.76 352.239 716.468 350.982Z" fill="#E0EEFF"></path>
  <path d="M813.441 451.408C813.441 459.645 808.89 466.173 803.268 466.173C797.646 466.173 793.074 459.625 793.074 451.408C793.074 443.191 797.564 436.684 803.268 436.684C808.972 436.684 813.441 443.253 813.441 451.408Z" fill="#8DBCFF"></path>
  <path d="M1128.31 433.522C1128.31 441.76 1125.88 448.288 1122.9 448.288C1119.91 448.288 1117.46 441.739 1117.46 433.522C1117.46 425.305 1119.89 418.777 1122.9 418.777C1125.9 418.777 1128.31 425.367 1128.31 433.522Z" fill="#8DBCFF"></path>
  <path d="M419.024 140.292C379.421 138.569 360.494 135.383 360.494 135.383C360.494 135.383 438.919 127.76 435.45 105.882C431.981 84.0041 287.402 85.6798 276.899 132.221C266.633 177.676 348.292 204.793 393.346 194.763C428.606 186.904 434.01 140.953 419.024 140.292Z" fill="white"></path>
  <path d="M426.619 109.466C426.619 109.466 430.914 97.6659 434.124 97.9019C437.334 98.1379 444.957 97.7603 444.461 99.1056C443.966 100.451 438.325 100.097 438.325 100.097C438.325 100.097 445.877 101.395 446.137 102.244C446.396 103.094 445.169 103.448 445.169 103.448C445.373 103.696 445.525 103.983 445.614 104.291C445.703 104.6 445.728 104.923 445.688 105.242C445.476 106.091 439.08 106.375 439.08 106.375C439.08 106.375 436.956 118.954 429.286 116.334C421.616 113.714 426.619 109.466 426.619 109.466Z" fill="#E0EEFF"></path>
  <path d="M363.786 297.263C363.899 297.034 363.994 296.798 364.07 296.555C402.946 314.965 447.45 317.571 488.21 303.824V303.824C492.718 314.09 501.521 328.51 511.551 374.461C517.121 399.974 506.996 460.321 506.359 501.906C505.628 548.399 506.572 617.55 505.557 704.283C505.415 715.965 497.981 713.275 493.756 713.228C486.676 713.228 480.988 709.758 479.124 703.551C453.163 617.432 449.033 596.427 433.857 521.424C420.429 454.987 412.05 396.339 409.667 387.206C409.667 387.206 374.265 490.2 377.286 509.175C384.366 553.757 395.836 700.46 384.65 707.54C377.074 712.26 370.489 714.479 365.061 708.956C359.633 703.433 312.832 571.811 312.549 495.109C312.266 436.767 339.69 331.744 363.786 297.263Z" fill="#052451"></path>
  <path d="M353.537 496.976C349.666 515.691 363.284 553.618 367.131 583.449C370.506 609.764 367.768 684.933 375.179 711.979C378.547 711.06 381.737 709.584 384.619 707.613C395.806 700.533 384.218 553.83 377.256 509.248C376.241 502.734 379.734 486.261 384.784 467.475C371.355 475.357 355.732 486.497 353.537 496.976Z" fill="#052451"></path>
  <path d="M340.662 367.576C334.408 365.924 334.715 354.313 335.942 347.964C338.302 335.432 343.565 320.28 348.616 296.561C351.613 282.401 358.339 159.275 390.153 147.475C468.744 118.328 532.207 175.277 525.339 197.579C513.727 235.341 510.942 254.623 509.503 282.354C508.771 296.703 511.863 327.502 513.869 346.076C514.518 351.786 513.274 357.551 510.328 362.484C507.381 367.418 502.896 371.247 497.561 373.382C487.342 377.178 476.67 379.622 465.818 380.651C432.257 384.475 366.364 374.35 340.662 367.576Z" fill="white"></path>
  <path d="M435.972 107.721C434.784 106.151 434.045 104.287 433.833 102.33C433.621 100.372 433.944 98.3937 434.768 96.6054C440.22 84.9702 452.799 91.1536 458.086 96.6054C469.249 108.052 461.626 115.675 460.776 120.678C459.945 124.762 458.833 128.784 457.449 132.715L435.972 107.721Z" fill="#5B9DFF"></path>
  <path d="M457.085 122.154L458.218 151.349C457.133 155.195 433.343 159.774 428.693 153.119C427.348 151.183 428.929 147.643 431.762 144.15L448.093 125.27L457.085 122.154Z" fill="#C4DDFF"></path>
  <path d="M454.112 110.613L455.694 127.134C455.733 129.782 454.741 132.343 452.926 134.272C451.111 136.201 448.616 137.349 445.97 137.471C441.762 137.612 437.576 136.805 433.721 135.111C429.426 133.601 428.128 128.833 429.426 123.051C430.958 116.961 433.511 111.176 436.978 105.94C441.934 98.3409 452.295 99.8749 454.112 110.613Z" fill="#C4DDFF"></path>
  <path d="M452.186 118.315C452.606 117.369 452.922 116.38 453.13 115.365C453.578 113.454 454.664 110.645 457.189 112.746C460.847 115.719 457.991 125.797 453.082 125.49C449.424 125.231 451.124 120.676 452.186 118.315Z" fill="#C4DDFF"></path>
  <path d="M484.788 718.997C473.492 719.449 462.178 719.039 450.944 717.77C450.741 718.605 450.631 719.459 450.614 720.319C450.472 724.874 496.635 726.03 504.518 721.876C505.584 721.195 506.453 720.246 507.037 719.123C507.621 718.001 507.9 716.745 507.846 715.48C500.267 717.271 492.556 718.447 484.788 718.997V718.997Z" fill="#C4DDFF"></path>
  <path d="M484.816 718.998C492.581 718.479 500.292 717.334 507.874 715.576C507.965 712.505 507.41 709.45 506.245 706.608C505.961 705.836 505.724 705.048 505.537 704.247C499.25 705.577 492.847 706.281 486.421 706.348C485.083 706.374 483.756 706.106 482.532 705.564C481.309 705.022 480.22 704.218 479.34 703.209L479.152 703.516C477.854 705.475 474.172 706.844 469.121 708.802C461.781 712.295 452.837 710.171 451.043 717.771C462.253 719.036 473.543 719.446 484.816 718.998V718.998Z" fill="#052451"></path>
  <path d="M366.136 718.997C354.801 719.455 343.447 719.045 332.174 717.77C331.972 718.605 331.861 719.459 331.844 720.319C331.702 724.874 377.866 726.03 385.748 721.876C386.815 721.195 387.683 720.246 388.267 719.123C388.852 718.001 389.13 716.745 389.076 715.48C381.536 717.265 373.865 718.44 366.136 718.997V718.997Z" fill="#C4DDFF"></path>
  <path d="M366.156 719.013C373.922 718.493 381.633 717.349 389.214 715.591C389.305 712.52 388.75 709.465 387.586 706.622C387.301 705.851 387.065 705.063 386.878 704.262C380.59 705.592 374.187 706.295 367.761 706.363C366.59 706.212 365.464 705.817 364.456 705.203C363.448 704.589 362.579 703.77 361.908 702.799C360.61 704.734 355.441 706.858 350.391 708.817C343.051 712.31 334.106 710.186 332.312 717.785C343.546 719.054 354.86 719.464 366.156 719.013V719.013Z" fill="#052451"></path>
  <path d="M490.32 153.54C530.914 153.894 548.379 148.985 548.379 148.985C548.379 148.985 455.368 144.123 458.837 122.174C462.306 100.225 628.197 110.94 633.483 149.197C640.729 201.615 554.066 217.64 509.036 207.609C473.776 199.75 475.31 153.398 490.32 153.54Z" fill="white"></path>
  <path d="M465.751 123.2C465.751 123.2 468.772 111.022 465.987 109.393C463.202 107.765 457.066 103.233 456.736 104.673C456.405 106.113 461.267 108.874 461.267 108.874C461.267 108.874 454.187 105.759 453.597 106.301C453.007 106.844 453.738 107.859 453.738 107.859C453.431 107.948 453.145 108.098 452.897 108.301C452.65 108.504 452.446 108.755 452.299 109.039C451.992 109.865 457.019 113.759 457.019 113.759C457.019 113.759 451.779 125.418 459.615 127.495C467.45 129.572 465.751 123.2 465.751 123.2Z" fill="#C4DDFF"></path>
  <path opacity="0.2" d="M444.805 736.107C538.001 736.107 613.551 730.823 613.551 724.306C613.551 717.789 538.001 712.506 444.805 712.506C351.609 712.506 276.059 717.789 276.059 724.306C276.059 730.823 351.609 736.107 444.805 736.107Z" fill="#092047"></path>
</svg>
