<?xml version="1.0" encoding="UTF-8"?>
<svg id="Layer_1" data-name="Layer 1" xmlns="http://www.w3.org/2000/svg" viewBox="0 0 345.87 334.49">
  <defs>
    <style>
      .cls-1 {
        fill-rule: evenodd;
      }

      .cls-2 {
        fill: none;
        opacity: 0;
        stroke: #000;
        stroke-miterlimit: 10;
        stroke-width: .09px;
      }
    </style>
  </defs>
  <g>
    <g>
      <path d="M153.03,119.89c-.28,1.66,2.64,1.68,5.45,1.68h64.02l.11-2.92h-64.02c-3.59,0-5.33-.11-5.56,1.24Z"/>
      <path class="cls-1" d="M45.03,148.18c.28-.57,.29-1.65,.23-3.86-.11-3.76-.84-14.83-1.07-17.07-.2-2.01-.25-2.98-.77-3.23l.02-.14,21.45,6.03c.13-.81,.2-1.6,.23-2.37,.33-8.81-4.46-22.23-21.94-22.91-14.95-.57-22.27,13.86-21.28,23.57,.99,9.95,7.86,19.65,21.94,19.98,.4,0,.8,0,1.19,0Z"/>
      <path d="M155.95,142.02c-.28,1.66,2.64,1.68,5.45,1.68h28.19l.11-2.92h-28.19c-3.59,0-5.33-.11-5.56,1.24Z"/>
      <path d="M196.62,109.78h-7.86c-1.65,0-2.34,0-2.71,4.34-.37,4.34-3.58,28.08-3.58,28.08l23.36-1.27s-2.55-15.95-3-19.92-1.1-7.95-1.42-9.58c-.41-2.06-1.8-1.65-4.79-1.65Z"/>
      <path d="M199.92,264.32c-1.6,.11-1.01,2.36-1.35,6.18s-2.25,9.43-6.85,13.59-10,7.19-13.48,8.65c-3.48,1.46-4.44,2.36-4.02,3.26,.52,1.12,3.09,.65,5.78-.56,2.94-1.32,8.9-4.49,13.84-9.32,4.33-4.23,6.96-9.88,7.41-15.27s-.3-6.59-1.35-6.51Z"/>
      <path d="M226.5,126.1c-1.34-.33-2.85,3-3.37,6.81-.52,3.82-.33,4.93-.22,7.11,.11,2.43,.75,7.04,2.32,7.34s.22-5.09,.15-8.61c-.07-3.52,.3-5.92,.82-8.09s1.2-4.34,.3-4.57Z"/>
      <path d="M152.52,240.51c-1.42-.41-1.91,2.36-3.03,5.5-1.12,3.14-4.72,8.99-9.43,13.81-4.72,4.83-8.54,8.09-10.78,9.66s-3.71,3.14-3.14,4.49,3.93,1.8,9.55,.56,16.29-4.04,19.54-5.05c3.26-1.01,5.28-1.65,5.05-3s-2.73-.6-5.5,.19c-2.43,.69-16.06,4.49-18.42,5.05s-6.56,1.55-6.78,.86,3.41-2.21,8.35-6.93c3-2.86,9.49-8.73,13.81-18.19,1.18-2.58,2.09-6.59,.79-6.96Z"/>
      <g>
        <path d="M254.77,100.81s.46,.38,1.04,1.02c.42-.2,.67-.32,.7-.34l-1.74-.68Z"/>
        <path d="M302.06,121.01c-8.25-3.71-25.54-12.48-32.68-13.98-3.74-.79-9.8,3-11.45-1.8-.48-1.4-1.4-2.6-2.12-3.4-3.03,1.45-14.82,7-14.82,7-.34,2.53-5.73,1.68-9.97,1.85-7.41,.29-11.85,6.77-15.16,10.56-3.93,4.49-13.14,15.16-13.14,15.16l-9.83,9.55,26.79,8.76,38.11,8.89c-.52-1.82-.65-4.76-.75-7.24-.15-3.89-.3-9.28,.22-13.1,.52-3.82,2.4-8.7,4.79-8.46,1.5,.15,2.25,4.57,2.4,7.49,.15,2.92-.15,5.84-1.42,11.53-.93,4.15-1.66,8.41-2.65,10.39l1.68,.39s6.39-.06,10.78-.15c3.74-.07,3.07-1.12,3.95-7.04,.72-4.86,1.35-9.94,1.35-9.94,0,0,10.28,.51,20.89-.34,10.61-.84,15.84-3.87,16.51-10.45,.67-6.57-5.22-11.96-13.48-15.67Zm-34.39,2.7c-4.75,.42-10.69-.97-17.23,4.14-6.54,5.11-11.55,7.02-14.88,5.43-2.38-1.14-2.61-4.43-1.99-6.21,.35-1.02,1.03-1.29,1.55-1.16,.53,.13,.64,.81,.43,1.72-.31,1.38-.1,3.06,1.08,3.7,1.18,.64,6.04,.08,12.79-5.51,6.75-5.59,13.69-3.63,18.2-4.19,3.13-.39,5.56-2.98,6.53-1.86s-1.73,3.51-6.49,3.93Z"/>
      </g>
      <path d="M210.85,261.48c-1.16,.3-.97,2.77-.75,6.51,.22,3.74,.9,10.18,1.27,14.45s.75,5.99,1.12,8.61,.97,4.34,2.17,4.12,.37-3.59,.22-6.06c-.15-2.47-1.65-13.7-1.95-17.37-.3-3.67-.45-4.79-.52-6.51s-.15-4.12-1.57-3.74Z"/>
      <path d="M141,298.66c0,1.18-1.12,1.35-4.49,1.35H14.43c-3,0-4.66-.03-4.55-1.52,.08-1.12,1.46-1.03,4.57-1.03h121.87c3.14,0,4.68-.07,4.68,1.2Z"/>
      <path d="M273.01,255.34h3.22c1.57,0,2.32,.07,2.4,1.8s.45,11.83,.45,15.12-.07,6.14,1.2,6.21,1.42-3.07,1.57-6.21c.15-3.14,.15-11.98,.3-15.57,.15-3.59,.15-6.06-4.12-5.99s-6.14,0-6.14,0l1.12,4.64Z"/>
      <path d="M258.32,244l-1.69,.06s-2.64-6.85-3.14-8.03-.17-1.74,1.46-1.74h3.14s1.29,.06,2.53,.06,1.74,.45,1.14,2.02-3.44,7.64-3.44,7.64Z"/>
      <path d="M245.74,251.07c-.04,1.1,1.39,1.18,3.02,1.18h17.49c1.37,0,2.51-.29,2.55-1.16s-1.03-1.04-2.43-1.04h-17.56c-1.33,0-3.03,0-3.06,1.02Z"/>
      <path d="M265.43,147.07c0,1.28,1.8,1.5,5.54,1.5s9.36-.07,11.91-.07,3.94-.22,3.97-1.25c.03-.98-1.2-1.37-3.97-1.37h-12.05c-2.85,0-5.39-.22-5.39,1.2Z"/>
      <path d="M301.39,126.29c.09,1.12-3.26,1.46-6.12,2.13-2.86,.67-11.79,2.47-16.23,3.59s-8.31,2.3-10.73,2.98-4.38,1.02-4.6-.17c-.28-1.46,2.81-2.08,4.6-2.58s12.3-3.26,15.78-4.04,10.9-2.08,13.48-2.58c2.12-.41,3.73-.45,3.82,.67Z"/>
      <path d="M197.67,109.48c-1.74-.04-.15-4.79,2.25-7.64,2.4-2.85,5.09-4.64,7.41-7.11,2.32-2.47,2.55-6.29-3-6.44-9.43-.3-11.68,12.95-11.91,14.98s-.23,4.99-1.65,4.79c-1.05-.15-.9-1.87-.67-4.27s.9-6.51,2.62-9.96c1.3-2.61,4.34-8.61,12.5-7.94s6.74,7.76,4.12,10.63c-2.3,2.53-5.43,3.52-7.94,7.45s-2.28,5.54-3.74,5.5Z"/>
      <path d="M107.26,203.23s6.4,30.1,7.41,36.73,7.08,36.28,8.87,45.82,2.92,13.59,2.92,13.59l2.58-.11s-5.05-25.49-6.06-31.34-8.42-44.59-9.21-48.52-3.14-15.05-3.14-15.05l-3.37-1.12Z"/>
      <path d="M25.21,293.9c.52-2.05,1-4.75,1.63-8.12,1.8-9.55,7.86-39.2,8.87-45.82s7.41-36.73,7.41-36.73l-3.37,1.12s-2.36,11.12-3.14,15.05c-.79,3.93-8.2,42.68-9.21,48.52-.76,4.38-3.38,17.47-4.79,24.93-.52,2.77-.15,3.29,.75,3.52s1.45-.91,1.85-2.48Z"/>
      <path d="M2.99,203.06v-17.28h0V90.31c0-1.5,.52-1.27,1.87-1.27H146.68c1.57,0,1.35,.53,1.35,2.25v110.09c0,1.96-.16,4.31,1.74,4.15,1.55-.13,1.4-2.41,1.4-4.94V89.51c0-3.26-2.19-3.42-4.04-3.42H2.75C.34,86.08,0,86.81,0,88.61v113.94C0,204.91,.56,205.59,2.36,205.59H140.5c4.04,0,6.44,.19,6.48-1.31,.04-1.52-3.11-1.22-6.31-1.22H2.99"/>
      <path d="M23.4,162.49c-.15,1.57,1.87,1.57,5.5,1.57h29.8c1.48,0,2.32-.47,2.32-1.44,0-1.07-1.35-1.33-3-1.33H29.2c-3.18,0-5.67-.15-5.8,1.2Z"/>
      <path d="M23.4,170.81c-.15,1.57,1.87,1.57,5.5,1.57h29.8c1.48,0,2.32-.47,2.32-1.44,0-1.07-1.35-1.33-3-1.33H29.2c-3.18,0-5.67-.15-5.8,1.2Z"/>
      <path d="M23.4,179.23c-.15,1.57,1.87,1.57,5.5,1.57h15.16c1.48,0,2.32-.47,2.32-1.44,0-1.07-1.35-1.33-3-1.33h-11.53s.71,0-2.66,0c-3.18,0-5.67-.15-5.8,1.2Z"/>
      <path d="M274.6,293.75c-1.57-4.83-6.51-18.88-6.85-21.45-.11-.84,4.33-13.39,5.47-16.62,0,0,.79-2.13,.97-3,.19-.86,.52-1.72-.82-2.28-1.93-.8-10.63-5.02-13.18-6.06s-3.67-.6-6.21,.52-6.29,2.7-8.76,3.67c-2.47,.97-3.29,1.53-4.57,1.53h-2.21c-1.46,0-1.63,.39-.34,3.26,1.12,2.47,4.6,9.96,6.89,14.3,1.41,2.68,2.55,4.79,2.55,4.79,0,0-2.36,6.96-4.6,12.13-2.25,5.17-3.48,8.42-4.27,10.22-.79,1.8-.34,3.59,1.57,3.82,1.91,.22,33.69,0,33.69,0,0,0,2.25,0,.67-4.83Zm-24.83-39.07c1.15-.3,1.55,1.35,1.85,2.56,.3,1.2,1.4,5.36,1.75,7.07,.35,1.7,.6,3.21-.4,3.46-1,.25-1.35-1.2-1.75-2.66s-1.3-5.16-1.75-6.91c-.45-1.75-.94-3.19,.3-3.51Zm3.38,27.58c-.47,1.74-1.34,6.08-2.14,8.55-.8,2.47-1.4,6.15-2.67,5.75s-.65-2.32-.12-4.39c.53-2.07,2.12-8.1,2.59-9.9,.47-1.8,1.21-4.91,2.41-4.61,1.07,.27,.4,2.87-.07,4.61Zm9.01-8.1h-9.14c-1.78,0-3.34-.08-3.29-1.18,.04-1.01,1.89-1.02,3.34-1.02h9.22c1.53,0,2.69,.17,2.65,1.04-.04,.87-1.28,1.16-2.78,1.16Zm3.33-15.76c-.45,1.75-1.35,5.46-1.75,6.91-.4,1.45-.75,2.91-1.75,2.66-1-.25-.75-1.75-.4-3.46s1.45-5.86,1.75-7.07c.3-1.2,.7-2.86,1.85-2.56,1.24,.32,.75,1.75,.3,3.51Z"/>
      <path d="M262.24,278.11c-1.11,.12-.85,2.24-.5,4.44s.84,4.58,1.14,6.71c.26,1.85,.77,4.46,1.87,4.21s.7-2.51,.4-4.71-1.1-6.11-1.35-7.57-.58-3.19-1.55-3.09Z"/>
      <path class="cls-1" d="M42.32,147.77l-.54-1.83s2.28,.22,7.79-1.05c5.94-1.37,8.39-4.64,10.26-7.19s2.81-5.34,4.04-5.24c.79,.07,.87,.8,.49,1.87-.34,.95-1.01,2.4-2.88,5.02-2.87,4.02-7.09,6.96-10.71,7.86-1.95,.49-2.58,.82-5.84,.94l-2.61-.38Z"/>
      <path d="M81.54,167.21c-1.5,0-1.5,1.72-1.5,4.27v11.16h2.92v-11.16c0-2.1,.32-4.28-1.42-4.27Z"/>
      <path d="M122.98,161.22c-1.5,0-1.5,1.72-1.5,4.27v17.15h2.92v-17.15c0-2.1,.32-4.28-1.42-4.27Z"/>
      <path d="M110.07,171.67c-1.5,0-1.5,1.72-1.5,4.27v6.7h2.92v-6.7c0-2.1,.32-4.28-1.42-4.27Z"/>
      <path d="M95.69,156.95c-1.5,0-1.5,1.72-1.5,4.27v21.41h2.92v-21.41c0-2.1,.32-4.28-1.42-4.27Z"/>
      <path d="M88.5,171.1c-1.5,0-1.5,1.72-1.5,4.27v7.26h2.92v-7.26c0-2.1,.32-4.28-1.42-4.27Z"/>
      <path d="M102.99,164.03c-1.5,0-1.5,1.72-1.5,4.27v14.34h2.92v-14.34c0-2.1,.32-4.28-1.42-4.27Z"/>
      <path d="M129.05,169.98c-1.5,0-1.5,1.72-1.5,4.27v8.39h2.92v-8.39c0-2.1,.32-4.28-1.42-4.27Z"/>
      <path d="M116.47,153.25c-1.5,0-1.5,1.72-1.5,4.27v25.12h2.92v-25.12c0-2.1,.32-4.28-1.42-4.27Z"/>
      <path d="M324.47,169.2c-1.01-4.38-4.81-14.34-6.06-17.41-2.25-5.5-6.63-5.28-13.81-5-4.71,.18-6.74,0-10.11,0-4.94,0-9.12,3.04-11.23,9.94-2.77,9.06-6.1,16.29-1.27,16.29h36.99c3.14,0,6.51,.56,5.5-3.82Zm-13.37-1.8c-4.85,1.96-6.09-1.25-9.15-3.31-3.26-2.19-11.4,5.84-15.11,4.1-2.55-1.2,.56-5.62,2.92-9.1,2.36-3.48,5.65-7.01,6.96-6.06,1.01,.73-.17,2.25-1.29,3.54s-5.05,6.06-6.12,8.14,2.53,.06,5.33-1.35c2.81-1.4,5.53-2.69,7.75-1.68,3.09,1.4,4.48,5.59,8.48,3.41,1.65-.9,3.55-2.13,4.23-1.31,.97,1.16-2.43,2.99-4.01,3.63Z"/>
      <path d="M223.28,228.83c-.04,1.65,2.58,1.68,5.17,1.68h89.4c4.04,0,4.1-.95,4.1-1.54,0-1.35-2.19-1.38-4.55-1.38h-88.84c-2.58,0-5.24-.19-5.28,1.24Z"/>
      <path d="M215.68,104.24c8.35,0,8.16-11.19,8.2-14.08,.04-3.14-.41-3.33-2.7-3.29-2.1,.03-12.73,0-12.73,0v2.36h12.47c.9,0,.8,.52,.75,2.51-.04,1.46-.23,9.86-5.75,10.13-2.36,.11-3.76-1.8-4.55-3.09s-2.34-.43-1.8,1.09c.37,1.05,1.91,4.38,6.1,4.38Z"/>
      <path d="M69.07,258.65c-6.91-2.86-14.32-8.09-16.85-12.8,0,0-.34,15.5-.34,25.78,0,16.62-.84,25.27,3.54,26.45s31.5,0,35.72,0,6.06-3.54,6.06-7.41,.17-24.6,.17-24.6c0,0-21.4-4.55-28.3-7.41Zm-8.99,5.9c-.11,3.26,0,13.81-.11,18.31-.11,4.49,.11,8.76-1.57,8.87-1.68,.11-1.57-2.92-1.46-6.4,.11-3.48,.11-18.08,.11-20.44s0-5.02,1.57-5.17c1.24-.11,1.57,1.57,1.46,4.83Z"/>
      <path d="M329.12,271.62c0-10.28-.34-25.78-.34-25.78-2.53,4.72-9.94,9.94-16.85,12.8-6.91,2.86-28.3,7.62-28.3,7.62,0,0,.16,20.51,.16,24.39s1.85,7.41,6.06,7.41,31.34,1.18,35.72,0c4.38-1.18,3.54-9.83,3.54-26.45Zm-6.51,20.1c-1.68-.11-1.46-4.38-1.57-8.87-.11-4.49,0-15.05-.11-18.31-.11-3.26,.22-4.94,1.46-4.83,1.57,.14,1.57,2.81,1.57,5.17s0,16.96,.11,20.44c.11,3.48,.22,6.51-1.46,6.4Z"/>
      <path d="M201.15,247.87h-16.38c-3.59,0-4.19,.28-4.27,.95s.52,1.35,4.42,1.35h46.45c2.32,0,3.97-.22,4.04-1.2s-1.57-1.27-4.12-1.27-30.14,.17-30.14,.17Z"/>
      <path d="M168.47,266.4c-3.09,0-3.69,.28-3.76,.95s.73,1.35,3.91,1.35h23.32c2.32,0,3.8-.22,3.87-1.2s-1.4-1.27-3.95-1.27l-23.4,.17Z"/>
      <path d="M214.4,266.4c-3.09,0-3.69,.28-3.76,.95s.73,1.35,3.91,1.35h23.32c2.32,0,3.8-.22,3.87-1.2s-1.4-1.27-3.95-1.27l-23.4,.17Z"/>
      <path d="M74.44,182.37c-.15,1.57,1.87,1.57,5.5,1.57h54.86c1.48,0,2.32-.47,2.32-1.44,0-1.07-1.35-1.33-3-1.33h-53.89c-3.18,0-5.67-.15-5.8,1.2Z"/>
      <path d="M141.57,231.14c3.03,0,3.93-.51,3.93-1.52,0-1.12-1.91-1.18-3.43-1.18H64.8c-2.73,0-4.38,.02-4.38,1.37,0,1.95,3.52,1.5,11.68,1.5l69.47-.17Z"/>
      <path d="M74.13,262.41c-31-6.51-28.08-38.31-28.08-51.05,0-2.58-.05-4.66,1.63-4.55s.95,2.81,1.07,6.06c.11,3.26-1.56,22.57,5.84,33.36,5.39,7.86,22.62,18.4,54.92,20.33,11.27,.67,12.84,.9,14.41,.97s2.35,.4,2.35,1.1c0,.76-.65,1.24-2.5,1.22-2.02-.02-22.61-.97-31.15-2.62l-18.49-4.83Z"/>
      <path d="M160.23,243.81s-.9,2.47-.9,7.49,1.11,8.57,1.83,10.52c.49,1.31,1.36,2.53,2.13,2.17,1.12-.52,.26-2.21-.3-4.75-.77-3.5-1.65-7.41-.22-14.75l-2.55-.67Z"/>
      <path d="M285.48,267.53c9.75-1.47,23.98-4.78,35.88-12.57,10.26-6.96,11.53-23.14,12.54-39.1,.94-14.82-.67-23.65-4.72-34.37-1.24-3.28-3.26-8.74-5.13-7.77s.69,3.56,2.6,8.89,5.82,17.1,4.38,33.58c-1.18,13.48-2.19,28.47-10.61,35.88-6.12,5.38-23.1,9.7-35.1,12.37-1.43,.32-1.8,.56-1.65,2.96s1.81,.12,1.81,.12Z"/>
      <path d="M299.2,250.4c-6.88-3.87-14.6-3.54-17.13-3.59-3.76-.07-6.01,.22-5.9,1.46,.13,1.45,1.46,1.24,6.06,1.35,3.71,.09,11.16,.3,16.4,3.71,3.37,2.19,3.03,1.85,4.1,2.58s2.02,1.07,2.64,.28,0-1.63-.84-2.41-3.54-2.36-5.33-3.37Z"/>
      <path d="M256.97,43.07c-8.32,.27-11.68,8.92-22.01,8.92h-85.27c-8.84,0-10.65-1.01-15.69-5.5-3.94-3.5-9-3.18-11.59-3.18s-5.71,.32-5.5,1.62,2.8,.86,5.18,.86,6.79-.86,10.57,2.59c3.77,3.45,7.33,6.04,13.05,6.04,4.42,0,14.88,.32,14.88,.32h63.5c13.15,0,17.92-.32,24.58-4.96,4.88-3.39,4.71-4.24,8.75-4.07s8.25,.84,8.42-.84-5.45-1.91-8.87-1.8Z"/>
      <path d="M289.6,106.02c.32-16.17-1.85-37.4-4.18-46.1s-4.28-22.41-51.44-24.26c-11.48-.45-19.18-1.18-37.66-1.18s-35.27,.73-47.85,1.18c-47.17,1.68-48.91,15.23-51.44,24.26-3.14,11.23-3.82,27.63-3.82,27.63h2.92s-.45-8.31,3.59-27.18c4.08-19.02,24.26-20.4,49.19-22.01,21.73-1.4,68.12-1.12,84.6,0,24.93,1.7,45.49,2.95,49.36,22.01,2.55,12.58,4.75,27.97,4.18,46.5-.11,3.65-.11,4.55,1.24,4.66s1.24-2.7,1.29-5.5Z"/>
      <path d="M137.88,248.15c-2.32,0-6.78-.3-14.41-.15-7.64,.15-18.19-.07-26.81,1.5-8.61,1.57-12.43,4.94-13.93,6.14s-2.17,2.17-1.2,2.85c1.24,.86,3.59-2.25,6.85-3.82s8.31-3.93,22.01-4.16,22.46-.11,25.38-.11c1.98,0,1.61,.04,2.62,0s1.68-.3,1.72-1.09-.52-1.16-2.25-1.16Z"/>
      <path d="M231.34,39.92c-.87-1.06-2.18,1.46-4.39,2.36-2.65,1.08-5.6,.81-9.29,.81h-54.37c-3.69,0-6.64,.27-9.29-.81-2.21-.9-3.51-3.42-4.39-2.36-.98,1.18,.69,2.66,1.5,3.4,.81,.74,2.42,2.22,7.62,2.22h63.48c5.19,0,6.81-1.48,7.62-2.22,.81-.74,2.48-2.22,1.5-3.4Z"/>
      <path d="M257.52,69.43s2.65-2.22,5.78-3.14c3.7-1.08,5.33-.22,4.9,1.08-.29,.86-1.65,.74-3.57,1.3-1.37,.4-2.83,1.13-4.64,2.31l-1.79,.03-.68-1.59Z"/>
      <path d="M236.83,93.16c-1.81,1.3-2.54,1.91-1.59,3.24s2.8,1.08,3.62-1.08-.26-3.44-2.03-2.16Z"/>
      <path d="M253.4,99.88s-3.88,1.81-8.44,3.95-7.08,3.41-5.39,5.93,3.54,6.08,3.54,6.08c0,0,12.84-6.69,14.57-7.77s.19-3.1-.64-5.52c-1.07-3.09-2.13-3.07-3.62-2.68Z"/>
      <path d="M252.93,96.96c-.25,2.35-2.27,5.18-6.03,4.68s-5.2-3.41-4.63-6.3c.65-3.31,3.9-4.55,6.22-4.07,.85,.18,.92,.55,.86,.91-.08,.51-.59,.64-1.39,.57-1.35-.11-3.53,.7-3.96,3.03s1.13,3.79,3.16,4.06,3.5-1.22,3.78-2.54-.27-2.46-.65-3.15c-.27-.49-.12-.86,.36-1.09,.86-.42,2.49,2,2.28,3.91Z"/>
      <path d="M345.87,298.66c0,1.18-1.12,1.35-4.49,1.35H158.2c-3,0-4.66-.03-4.55-1.52,.08-1.12,1.46-1.03,4.57-1.03h182.97c3.14,0,4.68-.07,4.68,1.2Z"/>
    </g>
    <path d="M264.63,72.44c-1.14-1.6-3.37-2.02-4.83-2.25-.99-.15-1.22-1.97-1.12-3.03,.45-5.17-3.02-9.57-7.19-8.99-4.83,.67-3.59,4.9-4.95,5.17-.98,.19-2.76-3.05-6.67-3.15-4.02-.1-5.03,2.8-6.29,3.31-1.56,.64-4.77-1.63-7.81,2.19-2.37,2.98-.37,7.99,2.89,9.9,.57,.33,.76,.54,.14,1.26-1.81,2.1-2.62,3.67-1.2,5.62,1.14,1.56,3.79,1.17,5.3-.13,.18,1.02,.33,2.21,.28,3.08-.07,1.4-.86,2.37-3.34,4.53-2.48,2.16,.15,3.41,.76,4.13,1.53,1.78-.86,5.59,2.61,8.9,.88,.84,2.78,1.89,4.94,2.34,2.16,.44,2.31-1.78,1.05-2.32-2.38-1.02-5.09-1.82-5.26-4.42-.24-3.77,0-4.56-1.62-5.96-1.76-1.53,1.71-2.7,2.67-4.64,1.14-2.32-.14-8.18-.14-8.18,.71-.81,3.74,4.88,8.32,5.23,2.92,.22,2.5-1.51,5.05-1.91,3.59-.56,4.71,4.58,2.92,7.75-2.63,4.65-.6,5.05,.45,5.05s1.37,0,2.34-1.65c1.48-2.51,2.22-5.02,3.18-5.78,.95-.76,2.42-2.16,5.28-4.64,5.06-4.39,3.88-9.1,2.24-11.4Zm-21.86,3.58c-.9,.94-2.46-.62-4.44-2.62-1.22-1.23-3.86-3.79-2.71-4.85,1.15-1.05,2.61,.86,4.46,2.79,1.85,1.93,3.58,3.76,2.7,4.68Zm10.3-3.43c-.54,1.52-1.35,2.13-1.95,1.98-.97-.24-1.09-.97-.67-2.13,.41-1.16,1.31-2.74,2.36-2.51,.67,.15,.71,1.39,.26,2.66Z"/>
  </g>
  <g>
    <polygon points="180.68 194.14 149.77 193.96 149.77 197.37 180.68 197.37 180.68 194.14"/>
    <path d="M281.15,174.02c-1.62,0-1.1,3.48-2.16,7.46-1.43,5.35-4.8,11.71-16.63,12.98-4.62,.5-6.96,.09-6.96,.09l-64.57-.37v3.18h64.57s11.38,.79,18.01-3.24c6.63-4.03,8-11.6,8.21-13.33,.22-1.73,1.15-6.77-.47-6.77Z"/>
  </g>
  <path d="M272.25,170.54c-.85-3.41-.56-4.49-6.63-6.85-.94-.36-2.46-.98-4.41-1.78-.59,2.08-1.23,3.46-2.06,3.42-1.16-.05-1.64-2.35-1.88-5.04-11.7-4.83-31.07-12.96-38.59-16.26-10-4.38-24.15-9.55-31.34-6.51-11.13,4.69-18.87,22.57-25.94,51.89s-8.3,31.7-10.11,40.43c-2.06,9.92-2.81,11.04,1.01,12.47,3.72,1.38,7.88,2.34,12.58,3.59,7.81,2.08,8.14,1.8,10-1.57s7.24-18.53,8.93-22.91,2.86-7.92,3.37-4.38c.51,3.54,2.36,14.15,3.54,22.57,1.18,8.42,2.53,13.65,3.37,17.86,.84,4.21,1.68,6.23,5.22,6.06,3.54-.17,13.31-.67,17.02-1.01,3.71-.34,4.04-1.68,4.04-4.21s-.17-39.08-.51-46.67c-.34-7.58-.34-10.78-.34-12.64s1.18-1.18,3.37-1.35c2.19-.17,23.59-.17,30.66-.17s16.31-1.63,18.87-15.16c.95-5.05,.51-9.1-.17-11.79Zm-44.35,13.95c-.89,.69-1.99-.21-3.51-1.72-1.51-1.51-2.41-2.34-5.79-5.81-4.43-4.55-9.27-9.46-13.15-13.15-3.2-3.04-6.64-5.24-10.52-4.59-6.93,1.17-7.78,7.1-8.08,13.31-.31,6.47,.76,22.17,1.07,28.06,.31,5.88,1.34,10.32-.31,10.52-1.65,.21-1.96-2.48-2.48-7.43-.52-4.95-1.66-24.34-1.14-32.39,.52-8.05,3.35-13.07,8.01-14.51,3.78-1.17,8.05-.76,12.79,3.23,4.75,3.99,13.83,13,16.71,15.96,0,0,1.17,1.24,3.51,3.65,2.34,2.41,3.78,4.2,2.89,4.88Z"/>
  <rect class="cls-2" x="0" width="345.87" height="334.49"/>
  <path d="M98.35,133.91c2.09,2.3,5.29,4.03,8.64,4.03,3.14,0,5.34-1.94,5.34-4.61,0-4.71-6.81-5.29-11.73-8.17-2.88-1.68-5.18-4.19-5.18-8.32,0-5.08,3.66-8.53,8.17-9.79v-6.02h6.28v5.65c2.83,.31,5.55,1.31,8.27,3.3l-3.66,5.23c-1.47-1.36-3.93-2.41-6.33-2.41-2.67,0-5.65,1.15-5.65,3.98,0,5.92,16.91,4.08,16.91,16.44,0,5.55-4.24,9.63-9.53,10.68v5.81h-6.28v-5.86c-3.61-.68-6.96-2.46-9.84-5.13l4.61-4.82Z"/>
</svg>