<?xml version="1.0" encoding="UTF-8"?>
<svg id="Layer_1" data-name="Layer 1" xmlns="http://www.w3.org/2000/svg" viewBox="0 0 324.68 334.49">
  <defs>
    <style>
      .cls-1 {
        fill: none;
        opacity: 0;
        stroke: #000;
        stroke-miterlimit: 10;
        stroke-width: .1px;
      }
    </style>
  </defs>
  <g>
    <path d="M41.78,135.56s2.96,18.97,4.18,26.8,5.22,44.03,6.27,53.25l2.15-5.16s-1.7-16.24-2.09-19.57c-.39-3.33-3.17-24.91-4.41-33.88-1.24-8.97-3.71-22.12-3.71-22.12l-2.38,.68Z"/>
    <path d="M53.79,107.02c-1.57-17.23-11.14-31.5-19.32-30.46-9.55,1.22-13.19,21.32-11.49,34.63,1.91,14.97,10,27.41,19.84,26.63,8.7-.7,12.53-13.57,10.97-30.8Zm-12.1,22.53c-1.62,.23-1.7-2.71-2.01-5.88-.31-3.17-.93-7.89-1.47-12.99-.54-5.1-2.01-14.62-2.4-16.86-.39-2.24-.07-3.11,.77-3.25,.93-.15,1.55,.54,1.86,2.4,.31,1.86,1.01,4.8,1.39,7.5s2.48,19.72,2.63,21.66,.85,7.19-.77,7.43Z"/>
    <path d="M34.9,161.28c-7.24-15.71-23.05-28.29-30.41-24.57-8.59,4.34-3.28,26.84,2.78,38.81,6.81,13.46,18.6,22.49,27.6,18.45,7.97-3.57,7.27-16.98,.03-32.7Zm-2.54,26.85c-1.88,.94-3.07-2.1-4.62-5.28-1.55-3.18-4.05-7.84-6.6-12.94-2.55-5.1-7.86-14.41-9.16-16.58-1.3-2.18-1.23-3.22-.27-3.73,1.07-.56,2.08-.1,3.14,1.71,1.06,1.81,3,4.58,4.47,7.24,1.47,2.66,10.32,19.54,11.22,21.49s3.7,7.15,1.82,8.09Z"/>
    <path d="M82.79,114.73c-5.65-2.1-18.45,5.68-24.02,23.09-5.36,16.76-1.29,27.19,3.94,28.89,7.89,2.55,17.98-7.77,22.97-21.35,4.99-13.57,4.29-27.96-2.9-30.63Zm-3,14.02c-.54,1.07-3.65,9.14-5.59,13.11-1.93,3.98-5.08,12-5.8,13.41-.89,1.72-1.5,3.62-2.79,3.04-1.07-.48-.75-1.5-.32-3.12,.43-1.61,3.44-8.92,5.7-13.97,2.26-5.05,5.27-11.61,6.02-13.44,.75-1.83,1.93-3.31,3.01-2.9,1.15,.43,.32,2.79-.22,3.87Z"/>
    <path d="M62.14,164.85s-9.51,27.5-10.33,30.63l.7,5.92s10.56-31.56,12.3-35.62l-2.67-.93Z"/>
    <path d="M33.25,192.35c.23,.46,11.6,21.46,14.97,31.21l1.74-4.18s-9.28-20.07-13.81-28.54l-2.9,1.51Z"/>
    <path d="M137.82,90.33s-5.65,6.19-14.08,10.36c-8.43,4.18-13.1,6.98-15.55,11.6-1.39,2.63-2.13,5.26-.39,5.49s2.22-6.67,9.67-10.71c8.04-4.37,13.34-6.52,16.01-8.64l4.33-8.1Z"/>
    <path d="M17.01,275.42c0,1.64,2.44,1.51,4.29,1.51H282.93c4.87,0,5.45-.58,5.57-1.97s-3.02-1.28-5.57-1.28H21.53c-1.97,0-4.52,.23-4.52,1.74Z"/>
    <path d="M161.4,106.73c-3.04,1.34-4.76,2.2-4.52,3.6s3.31,3.16,6.96,1.22c2.73-1.45,3.77-4.23,2.84-5.51s-2.78-.41-5.28,.7Z"/>
    <path d="M154.8,100.43c-.82,.78,.08,2.1,.93,2.72,1.06,.78,3.17,1.77,5.33,.22,1.65-1.19,1.64-2.54,1.16-2.92-.8-.63-1.29,.11-2.38,.95-1.15,.89-2.12,.61-3.22-.43-.93-.88-1.43-.91-1.82-.54Z"/>
    <path d="M179.36,87.47c-2.24-.12-2.94,1.16-2.94,5.96s.04,8.59,0,9.82c-.06,1.68,.88,2.96,2.49,2.78,2.67-.29,4.93-4.87,4.85-9.75s-2.07-8.7-4.41-8.82Z"/>
    <path d="M174.87,111.29c-5.24,6.22-10.36,7.66-13.92,8.04s-6.53-.15-6.57-1.47,1.74-.97,4.14-1.08,9.32-1.28,13.07-5.65,4.83-7.08,5.18-9.24l2.36,1.47s-1.16,4.25-4.25,7.93Z"/>
    <path d="M157.83,156.83c7.85,0,13.98-2.92,15.54-3.9,1.43-.9,2.83-2.44,1.88-3.28-.83-.74-2.46,.8-4.15,1.7-2.55,1.35-7.11,2.92-13.16,2.92-6.06,0-10.61-1.57-13.16-2.92-1.69-.9-3.32-2.44-4.15-1.7-.95,.84,.45,2.38,1.88,3.28,1.55,.98,7.5,3.9,15.34,3.9Z"/>
    <rect x="143.69" y="216.6" width="28.91" height="28.91" rx="4.41" ry="4.41" transform="translate(209.7 -44.15) rotate(45)"/>
    <path d="M100.51,265.91c-.25,2.73,3.07,2.27,5.29,2.27h107.61c1.61,0,2.22-.96,2.22-2.03s-1.07-1.68-3.6-1.68H105.49c-2.45,0-4.83-.24-4.98,1.44Z"/>
    <path d="M291.05,140.68c-1.32-.72-2.09,2.09-3.48,5.18s-2.94,8.04-3.64,9.67-1.92,4.33-.66,4.64c1.08,.27,2.28-2.71,2.9-4.33s3.02-7.89,3.64-9.44,2.09-5.26,1.24-5.72Z"/>
    <path d="M306.71,144.43c-1.06-.05-1.16,1.62-1.74,4.99-.58,3.36-1.57,8.88-1.97,11.25s-1.1,5.57,0,6.03,2.03-3.94,2.67-7.48c.64-3.54,1.1-7.43,1.45-9.51s.75-5.22-.41-5.28Z"/>
    <path d="M287.3,112.1c-1.55-1.95-3.09-3.6-4.52-2.78-2.07,1.17-.15,9.98,1.7,16.13,1.85,6.12,2.4,8.35,3.17,10.91s1.62,4.87,2.71,4.64,.46-3.4-1.39-9.98c-1.86-6.57-2.32-8.28-3.25-11.37-.93-3.09-1.89-6.42-1.35-6.88s4.17,5.21,5.76,7.89c1.47,2.48,1.78,3.09,2.48,4.41s1.47,2.63,2.4,2.17,.7-2.01-1.16-5.1-5.03-8.12-6.54-10.02Z"/>
    <path d="M296.79,84.86c-1.97-.06-3.27,2.46-3.81,6.79s-1.86,13.54-2.24,17.71c-.39,4.18-.77,5.8,.54,5.96s1.55-3.79,1.93-6.5,1.62-15.01,2.01-16.94,.47-3.74,1.33-3.71c.93,.03,1.22,2.09,1.45,6.5s.31,6.11,.39,8.59,.39,4.18,1.7,4.02,.77-4.64,.77-7.12-.38-7.59-.62-9.36c-.47-3.59-1.56-5.88-3.46-5.94Z"/>
    <path d="M314.21,110.94c1.2,.5,2.13-1.66,3.29-4.1s2.8-6.91,3.87-9.4c.52-1.22,1.32-1.52,.97,.58-.39,2.32-2.22,11.49-4.83,20.01-2.61,8.53-5.68,15.43-7.66,18.91-1.97,3.48-4.06,6.38-3.13,7.02s3.07-1.62,4.93-5.1c1.86-3.48,6.15-12.99,7.54-17.34,1.39-4.35,4.49-16.32,5.24-21.71,.38-2.74,.62-6.77-1.41-6.88s-3.31,2.61-4.41,4.81c-1.1,2.2-3.34,7.36-3.94,8.82-.72,1.72-1.38,4-.44,4.39Z"/>
    <path d="M134.4,92.3c2.4,.35,1.18-10.34,8.86-20.77,3.25-4.41,6.96-8.47,16.59-8.47s17.6,6.85,18.83,24.94l2.05,1.74s1.04-29.24-20.65-29.24c-9.17,0-14.85,3.6-18.91,9.63-4.06,6.03-6.08,11.09-7.19,17.87-.35,2.13-.58,4.15,.43,4.29Z"/>
    <path d="M308.91,100.55c2.02-5.34,2.96-7.43,4.27-10.72,1.7-4.25,3.21-5.69,4.8-5.26,1.7,.46,1.62,3.94,1.08,7.27s-1.31,7.04-2.32,11.22-1.86,6.5-2.78,6.27-.39-2.48,0-4.33,1.55-6.19,1.93-8.35,1.86-8.24,1.16-8.47-1.62,2.36-2.86,5.68-3.25,9.05-4.02,10.98-1.84,4.22-2.96,4.06c-1.24-.17-1.45-1.51-1.37-3.83s.77-9.51,.93-12.92c.15-3.4,.64-6.69-.23-6.73-.81-.04-1.78,5.18-2.48,8.43s-1.86,11.37-3.25,10.83-.58-4.72,1.08-12.72c1.53-7.36,3.01-11.19,5.34-10.87,1.68,.23,2.2,3.25,2.15,6.67-.06,3.42-.4,8.82-.64,10.91-.12,1.03-.16,1.38-.2,1.71s.13,.83,.38,.17Z"/>
    <path d="M294.82,107.6c-.55,1.55,3.48,2.26,5.86,2.84s8.88,2.09,11.49,2.55c2.61,.46,4.37,.66,4.52-.35,.12-.76-1.51-1.33-3.94-1.91s-9.98-2.09-11.66-2.49-5.86-1.78-6.27-.64Z"/>
    <path d="M284.9,159.4c-2.78-.87-4-1.74-5.74,2.61-1.74,4.35-15.66,33.76-16.53,36.2-.87,2.44-1.39,2.26-3.83-.52s-16.36-20.19-25.06-31.15c-8.7-10.96-16.53-16.82-25.58-20.94-8.95-4.07-20.36-5.53-26.45-6.96-1.98-.46-3.83-1.86-5.16-2.9s-1.39-1.57-.41-1.91c0,0,7.75-2.51,11.66-4.47,3.71-1.86,4.39-2.46,3.31-5.63-1.08-3.17-2.03-6.5-9.17-14.15-6.45-6.92-4.81-20.01-6.9-30.53-2.09-10.52-10.67-12.53-15.08-12.57-9.06-.08-16.18,2.78-19.32,15.49-2.62,10.61-8.53,16.01-13.75,20.19-5.22,4.18-11.49,9.22-13.4,15.49-.87,2.78-1.22,3.48,3.65,6.27s15.6,7.43,23.09,9.69c0,0-1,1.45-3.94,3.6-.3,.22-.49,.49-.56,.75-.28,.03-.61,.08-.98,.12-2.32,.23-14.08,2.17-17.94,2.9-13.95,2.65-33.07,11.14-52.56,47.34-19.49,36.2-40.95,77.85-18.22,85.97l49.42,.23s-.7-11.72-1.04-19.84c-.35-8.12-2.94-42.91-3.25-50.12-.27-6.3-.27-5.52-.27-7.46,0-2.86,1.24-5.03,4.87-5.03h117.8c4.64,0,9.62,2.51,9.28,12.14-.23,6.61-2.2,59.4-2.2,63s-.71,8.12,1.39,8.12c1.39,0,1.51-4.99,1.62-8.35,.12-3.36,1.39-45.47,1.39-47.45,0-1.62,7.66,7.95,17.05,14.73,9.4,6.79,15.66,10.44,26.28,10.44s22.28-14.62,28.71-44.73c6.44-30.11,6.79-33.76,6.79-33.76,0,0-16.18-5.92-18.97-6.79ZM63.21,261.07c-2.27,.85-9.36,3.9-14.69,3.51s-4.29-4.94-2.34-8.97c1.95-4.03,11.05-15.08,14.04-18.33,2.99-3.25,5.94-6.15,7.15-4.81,.82,.91-2.3,3.6-4.81,6.54-2.51,2.95-11.7,14.3-13.52,17.5-1.82,3.21-2.48,5.21,.56,5.16,4.55-.09,10.88-2.3,13-3.21,1.82-.78,3.6-1.21,4.07-.3,.48,.91-.69,1.86-3.47,2.9Zm16.29,7.48c-1.1,.26-2.05,.49-3.69,.71-7.13,.98-9.56-5.43-8-6.17,1.49-.71,1.96,2.85,4.71,3.38,2.89,.55,4.61,.06,7.83-.71,3.51-.85,6.99-3.03,7.51-1.62,.58,1.56-4.27,3.46-8.35,4.42Zm1.46-24.56c-3.45-1.31-2.63-2.41-1.64-4.71,.99-2.3,7.72-16.75,7.72-16.75,1.75-3.45,2.35-2.3,2.35,2.24,0,3.61,.7,15.16,.77,19.76,.05,3.83-5.75,.77-9.2-.55Zm19.61-55.81c-1.14,.19-1.43-1.43-2-3.52s-2-8.27-2.28-10.55c-.29-2.28-.76-4.63,.48-4.85,1.05-.19,1.43,1.9,1.9,4.37,.45,2.35,1.52,7.04,2,9.7,.48,2.66,1.05,4.66-.1,4.85Zm31-43.35c-.66,2.82-2.24,13.17-3.4,19.88-1.16,6.71-1.66,16.23-1.82,19.05-.17,2.82,.1,5.01-1.16,5.05-.99,.03-1.41-1.33-1.33-4.22,.08-2.9,0-9.52,1.41-19.71s3.15-19.22,3.73-21.12,1.16-3.42,2.32-3.15c.7,.17,.91,1.41,.25,4.22Zm4.24-18.26c-7.1-1.71-2.49-6.9-3.77-8.12-1.16-1.1-9.05,2.26-10.56-.52-1.18-2.18,1.41-4.85,3.81-7.48s5.69-5.9,8.51-8.66c3-2.94,4.08-6.26,5.57-5.41,.68,.39,.15,3-2.92,6.42-2.91,3.24-7.68,7.46-9.51,9.51-1.91,2.15-3.23,3.2-2.44,3.89,.91,.79,7.65-1.75,9.51,.23,1.22,1.3,.41,3.38,.33,5.36-.08,1.97,.66,2.28,4.54,3,1.86,.34,2.84,.64,2.61,1.64-.32,1.4-4,.56-5.68,.15Zm41.65,14.5c-.23,1.45-2.38,20.01-2.84,24.36s-2.73,20.54-2.9,22.22c-.17,1.68-.41,1.74-1.51,1.74h-27.44c-1.28,0-1.1,0-1.1-2.67s-.41-8.99-.7-14.79c-.49-9.74-3.13-31.15-3.13-31.15-.08-.8-.17-1.38-.29-1.81,.25-.1,.52-.25,.81-.45,2.23-1.57,4.97-3.44,7.19-8.43,1.33-3,1.87-4.5,2.26-6.01,.38-1.45,.76-1.6,2.12-1.04,2.06,.85,4.67,1.83,9.08,1.6,4.23-.21,3.92-1.62,3.83-1.97-.17-.68-1.16-.77-3.36-.62-6.75,.47-10.09-2.2-13.46-8.12-3.36-5.92-3.13-16.7-3.13-19.84,0-2.2,.58-2.44,1.74-2.78,1.16-.35,11.55-4.22,18.22-11.83,1.22-1.39,1.97-2.03,2.44-.52,.46,1.51,1.98,8.14,7.25,12.53,.64,.52,.64,1.28,.58,2.49-.06,1.22-.42,7.64-.87,13.11-.52,6.38-5.8,10.27-5.8,14.27,0,6.15,3.54,12.01,7.31,15.08,3.77,3.07,3.94,3.19,3.71,4.64Zm12.12,32.6c-.07,2.55,.29,10.33-1.8,10.09-2.09-.23-1.51-4.29-1.51-8.93s-1.28-16.01-2.09-21c-.81-4.99-1.37-8.85,.35-9.17,1.28-.23,2.32,3.02,2.9,8.01,.58,4.99,2.26,16.47,2.15,21Zm25.87,5.22c-.22,1.36-.81,4.99-1.33,7.43s-.93,3.77-1.8,3.6c-.87-.17-.64-1.86-.41-3.6s.93-5.86,1.22-7.66c.29-1.8,.9-4.26,2-3.97,1.12,.29,.67,2.09,.32,4.21Zm46.12,32.64c-.87,4.31-1.47,11.68-1.7,13.77s.08,4.8-1.24,4.72c-1.31-.08-1.24-1.7-1.16-4.56,.08-2.86,.7-9.51,1.66-14.54,.84-4.36,1.82-6.81,3.21-6.19,.87,.39-.08,3.35-.77,6.81Zm16.36,20.92c-1.12,.5-1.55-1.04-2.09-3.21-.5-2.01-.66-3.91-1.55-3.83-1.46,.13-2.75,4.35-5.24,4.29-2.49-.06-2.84-3.48-2.96-6.85-.12-3.36,.03-7.6,.12-10.27,.12-3.62,.46-4.82,1.62-4.76,1.16,.06,.99,2.96,.93,4.76-.06,1.8-.12,2.38-.06,7.19,.06,4.81-.06,7.02,.87,6.9s2.84-3.44,4.6-3.83c1.59-.35,3.06,1.39,3.64,4.18,.58,2.78,1.15,4.95,.12,5.41Z"/>
  </g>
  <rect class="cls-1" x="0" width="324.68" height="334.49"/>
</svg>