<?xml version="1.0" encoding="UTF-8"?>
<svg id="Layer_1" data-name="Layer 1" xmlns="http://www.w3.org/2000/svg" viewBox="0 0 434.51 334.49">
  <defs>
    <style>
      .cls-1 {
        fill: none;
        opacity: 0;
        stroke: #000;
        stroke-miterlimit: 10;
        stroke-width: .1px;
      }
    </style>
  </defs>
  <g>
    <g>
      <path d="M153.78,91.28s11.45-.17,10.28,7.19c-1.15,7.36-14.73,2.84-14.73,2.84,0,0,1.15,12.6-5.76,12.6s-6.13-12.51-6.13-12.51c-5.02,.84-22.61-1.94-18.98-11.62,3.65-9.68,23.95-.79,23.95-.79,0,0-2.87-23.57,9.85-22.26,13.05,1.32,1.52,24.55,1.52,24.55Z"/>
      <path d="M72.54,212.17c-5-4.8-11.35-3.19-23.07,6.92s-25.03,23.19-27.51,26.07c-5.15,6.03,17.73-1.23,30.16-8.16,12.43-6.91,28.49-17.12,20.42-24.84Z"/>
      <path d="M96.49,230.11c-2.13,.17,.12,12.14,5.23,30.62,4.34,15.7,6.92,22.09,8.51,21.46,1.89-.73-3.01-9.74-7.09-26.7-4.88-20.25-4.86-25.53-6.65-25.38Z"/>
      <path d="M52.48,249.65c-2.58-3.29-13.66-2.52-19.01-1.84-10.77,1.33-17.56,2.67-24.49,12.24-5.35,7.43-12.6,18.63-6.79,19.57,5.72,.93,26.17-5.32,40.01-14.89,10.27-6.45,12.9-11.79,10.28-15.08Zm-13.66,12.58c-2.63,2.96-4.02,3.65-10.05,4.51-5.44,.78-15.03,10.55-19.69,7.41-2.55-1.72-1.42-5.2,.69-7.97,.57-.78,1.74-1.87,2.65-1.98,.88-.08,1.28,.76,.42,1.74-2.28,2.63-3.8,6.1-1.37,6.38,4.59,.56,10.28-6.74,17.65-7.5,4.76-.49,6.18-2.41,8.16-4.04,1.94-1.57,3.09-.69,1.54,1.44Z"/>
      <path d="M349.4,79.71c8.66-5.23,13.68-9.49,15.94-7.08,2.4,2.57-3.41,10.33-7.53,17.66-4.12,7.33-9.03,17.04-13.58,17.73-4,.62-9.25-5.15-11.26-7.4-2.48-2.8-1.33-5.05,.66-2.92,1.99,2.13,6.65,7.45,9.71,7.33,3.06-.14,7.72-8.26,11.18-14.19,3.09-5.32,9.41-14.73,8.6-16.06-.78-1.3-5.42,2.13-13.54,7.72-8.12,5.59-19.1,7.58-19.4,5.23-.17-1.32,2.77-1.17,4.91-1.81,8.58-2.57,10.66-4.02,14.32-6.23Z"/>
      <path d="M336.69,189.92c-.41-2.92-16.63-67.46-17.56-71.31-.95-3.87-2.67-7.85-1.74-8.12s6.65-1.86,9.71-3.19c3.06-1.33,2.92-2.26,2.92-4.26s.14-16.36-1.99-16.36c-4.78,0-37.64-1.08-56.01,.79-18.36,1.87-32.46,6.13-34.85,22.09-2.38,15.98,1.33,44.18,1.33,44.18,.14,1.59-8.65,3.48-10.79,4.27s-2.67,.93-2.8,3.99c-.14,3.06-.41,23.41-.27,26.07,.14,2.67-.39,3.73,1.6,4.66,16.33,7.62,36.98,4.78,49.5-9.85,12.51-14.64,18.64-33.54,19.57-31.8,2.4,6.79,13.98,36.97,16.11,41.76,2.13,4.8,3.72,3.87,12.9,2.13,9.19-1.72,12.78-2.13,12.38-5.05Zm-92.44-33.27c-1.81-1.15,8.65-14.62,13.95-22.56,3.43-5.17,15.3-22.49,17.8-21.23,1.86,.95-7.35,10.49-15.54,22.63-3.14,4.64-14.47,22.27-16.21,21.16Zm50.83-23.95c-3.17,4.88-4.75,8.93-7.19,16.4-2.84,8.73-8.33,12.78-14.62,12.95-6.47,.19-10.42,20.55-17.07,21.21-6.65,.68-6.45-15.91-4.39-16.09,2.4-.24,.03,14.03,4.76,13.32,4.26-.68,7.63-20.25,16.23-20.72,7.99-.46,10.84-5.81,12.24-9.49,1.71-4.44,5.07-13.04,7.19-17.04,2.14-4,5.94-9.1,7.19-8.26,1.08,.71-.83,2.3-4.34,7.72Zm-7.36-22.98c-4.26-.08-9.79,.44-9.57-1.23,.17-1.42,7.94-1,10.06-1.08,2.7-.08,16.99-.34,19.2-.44,2.23-.08,5.42-.08,5.42,.71s-1.6,1.23-5.42,1.5-15.43,.64-19.69,.54Zm32.09,65.98c-2.01,.66-5.45-12.38-6.92-18.37-1.45-5.98-5.25-17.02-3.19-17.43,1.99-.41,3.72,8.38,5.59,15.32,1.86,6.91,6.52,19.83,4.53,20.48Z"/>
      <path d="M323.48,195.78c-1.99,.27,.15,3.77-2.82,8.07-2.7,3.93-4.37,6.43-3.04,7.01,1.28,.54,3.7-2.82,5.83-6.65,1.5-2.74,1.81-8.68,.03-8.43Z"/>
      <path d="M354.44,225.4c.9,2.75-.9,3.46-2.31,.44-1.42-3.01-7.9-8.34-10.91-12.51-7.08-9.79-8.7-21.65-8.7-21.65l2.4-.71c1.23,5.23,2.63,10.17,5.32,15.43,5.4,10.66,12.6,14.13,14.2,19Z"/>
      <path d="M155.24,164.47c-1.1-.15-2.13-.61-2.97-1.3-1.44-1.22-2.63-3.44-.24-7.18,4.12-6.38,.14-10.77-2.26-12.65,0,0-3.75-2.11-7.19,.14-2.67,1.74-1.06,3.33-4.53,5.59-3.04,1.99-6.89,7.18-3.06,13.44,.66,1.06,11.58,2.48,19.64,3.66,8.04,1.18,13.19,3.38,13.73,2.06,.54-1.3-4.96-2.43-7.51-2.84-2.08-.32-4.26-.74-5.61-.93Z"/>
      <path d="M142.6,89.64s-1.82,.61,1.5,5.81c3.01,4.69,3.85,5.42,4.88,4.69,1.01-.71-.12-2.92-2.21-6.57-2.09-3.61-3.21-4.51-4.17-3.93Z"/>
      <path d="M203.8,69.44c-1.72,1.25-4.34,3.46-4.34,6.32,0,4.34,4.88,3.99,7.19,3.38,2.31-.62,5.59-2.21,4.88-3.28s-8.04,2.57-9.14,.54c-1.72-3.16,4.59-4.85,5.08-7.41,.59-3.07-5.81-10.23-2.01-13.36,5.44-4.51,8.27,10.88,10.5,10.67,1.89-.17-2.18-17.39-10.96-13.46-5.88,2.63-2.33,10.89-.46,14.27,.73,1.32,.83,1.17-.76,2.33Z"/>
      <path d="M370.5,237.72c15.11,8.27,53.48,29.72,57.03,31.93s7.72,4.69,6.82,5.59c-.9,.89-2.84-.17-8.6-3.65-7.46-4.48-61.08-34.6-84.13-45.65-25.28-12.11-64.17-24.08-70.74-25.67-6.57-1.6-10.08-2.06-9.93-3.23,.05-.44,.19-1.28,4.8-.51,8.68,1.49,56.44,14.74,104.75,41.17Z"/>
      <path d="M153.97,200.84c-42.05,2.08-54.95,12.83-56.42,19.5-2.31,10.47,6.55,33.2,130.3,42.49,50.3,3.78,82.44,5.09,102.74,5.37-2.4-9.45,6.13-18.56,6.13-18.56l24.54,7.21,3.38-6.78c-91.81-56.42-189.19-50.29-210.67-49.23Zm43.42,46.76c-.19,1.98-9.44,1.3-12.3,1.36-9.17,.21-10.88-3.46-17.39-11.66-5.96-7.52-39.11-.99-42.23-7.65-3.26-6.94,13.25-16.86,22.65-21.19,3.13-1.44,5.58-2.45,6.12-1.2,.47,.99-2.25,2.53-4.39,3.46-8.78,3.92-24.48,13.15-21.49,17.85,2.7,4.23,34-.37,40.8,6.59,2.99,3.07,6.31,11.42,14.76,11.5,9.38,.08,13.66-.82,13.46,.95Zm106.05,6.65c-1.06,1.42-8.78-4.88-16.23-10.91-5.18-4.19-23.69-17.43-29.01-22.26-5.22-4.73-11.64-8.98-9.76-10.28,1.15-.79,6.84,5.05,13.05,9.83,4.31,3.33,10.99,8.61,20.67,16.06,10.3,7.95,22.27,16.23,21.28,17.56Z"/>
      <path d="M145.36,165.29c-1.3-.52-2.4,4.91-3.72,8.65-1.33,3.72-2.13,6.13-1.2,6.79,.93,.66,2.67-3.33,3.58-6.92,.93-3.6,2.67-7.97,1.33-8.51Z"/>
      <path d="M171.57,166.76c1.67,2.25,11.01-8.02,24.96-8.04,16.9-.03,25.06,5.45,25.47,3.56,.57-2.75-14.1-6.16-25.16-5.89-12.88,.3-26.53,8.66-25.26,10.37Z"/>
      <path d="M152.42,144.27c-.22,1.33,3.99,1.25,5.59,3.99,1.37,2.35,2.75,2.57,4.71,1.87,1.94-.71,2.69-.71,2.87,1.15,.29,2.84,3.55,3.95,4.19,7.8,.66,3.99-2.43,7.19-.9,7.85,1.64,.69,3.46-4.66,2.84-8.07-.74-4.09-4.17-5.42-4.53-8.51-.35-3.11-1.42-2.84-4.61-2.21-3.21,.62-2.04-.79-4.88-2.92-2.85-2.14-5.15-1.77-5.29-.95Z"/>
      <path d="M165.89,159.57c-1.54,1.33-5.35,.84-4.88-1.15,.35-1.47,1.23-1.55,2.92-1.23,1.71,.3,3.29,1.23,1.96,2.38Z"/>
      <path d="M217.11,67.25c-1.18-.49-2.4,1.5-3.38,3.99s-1.33,4.53-.44,4.96,2.28-2.45,3.16-4.59c.9-2.13,1.72-3.92,.66-4.36Z"/>
      <path d="M213.56,77.47c-1.42,.59,.68,10.42,6.43,8.75,4.73-1.37,2.96-11.13,1.06-10.05-1.4,.79,1.18,7.68-2.43,7.92-2.23,.17-2.92-7.5-5.07-6.62Z"/>
      <path d="M218.06,67.13c.78,2.04,10.79-5.1,14.4-2.5,2.89,2.08,.41,6.35-3.78,7.58-3.51,1.05-5.89,1.17-5.96,2.06-.08,1.05,2.36,1.11,5.08,.59,2.72-.54,7.65-2.45,8.19-7.06s-2.96-6.57-7.01-6.32c-3.92,.25-11.69,3.61-10.93,5.64Z"/>
      <path d="M61.8,201.37c-4.39,2.38-1.2,4.91,.79,6.13,1.99,1.2,3.58,1.27,3.87,.39,.54-1.59-6.18-3.11-2.7-4.76,19.07-9.24,86.9-13.19,109.12-12.92s56.42,3.19,56.42,3.19l-.54-2.4c-14.62-2.26-69.19-2.8-74.83-3.55-9.91-1.32-36.98-12.24-35.21-18.98s12.6-4.09,12.41-6.74c-.1-1.23-3.87-1.84-9.02,.03-5.44,1.98-5.71,6.18-5.71,6.18,0,0-1.87-1.42-4.69-.89-5.08,.96-1.5,6.82-1.5,6.82-3.28,.17-6.65,2.57-6.92,5.32s2.92,2.92,1.77,4.26c0,0-4.39,3.66-.37,8.6-25.01,2.9-38.55,6.96-42.89,9.32Z"/>
      <path d="M109.25,174.48s-.98-2.04-4.88-2.04-6.38,2.16-8.16,4.26c-1.42,1.69-1.22,3.04-.44,3.24,1.69,.44,2.11-3.68,6.18-4.98,5.39-1.71,5.23,2.16,7.3-.47Z"/>
      <path d="M198.31,118.33c-2.53,1.2-.24,7.09,6.43,12.29,1.89,1.47,3.28,10.1,4.61,15.55,1.33,5.45,3.26,13.24,4.96,12.95,1.69-.29-1.37-7.78-3.31-16.62-1.94-8.82-3.01-12.09-5.13-13.8-2.13-1.72-7.19-7.45-5.86-9.44l-1.71-.95Z"/>
      <path d="M193.11,107.15c.51,2.41,7.6-.44,12.56,6.57,4.96,7.01,4.93,13.09,8.87,18.98,4.26,6.38,8.6,14.81,10.47,18s3.11,5.69,4.17,5.05c1.33-.79-3.72-10.03-7.53-16.23-3.72-6.06-6.74-9.93-8.07-14.02s-2.25-7.65-6.13-13.39c-4.24-6.27-14.88-7.5-14.34-4.96Z"/>
      <path d="M179.96,102.91c-1.74,1.74,1.5,3.01,8.92,8.65,6.43,4.9,8.9,6.42,11.58,8.51,4.53,3.55,4.91,3.19,5.72,1.87,.79-1.33-2.48-3.19-11.31-9.85-11.47-8.65-13.31-10.81-14.91-9.19Z"/>
    </g>
    <path d="M359.1,245.91c-21.82-10.77-33.39-17.68-33.89-14.73-.25,1.38,4.59,2.92,9.86,5.47,5.25,2.55,13.64,6.64,16.08,7.87,2.41,1.25,2.2,1.98,2.9,4.59,.76,2.82,1.28,4.98,.17,5.02-.54,.03-5.88-3.73-11.75-4.91-6.67-1.35-12.6-.79-15.08,2.48-2.5,3.29-2.23,8.33-.1,14.37,.62,1.77-.47,1.5-22.7,.64-11.16-.39-71.31-4.8-74.15-5.05-2.84-.25-2.75-1.15-3.38-3.72-.46-1.94-12.14-49.41-12.85-52.69-.71-3.28-1.25-4.07-2.31-4.17-1.06-.08-4.49-.57-7.33-.68-2.84-.1-2.52,.51-2.25,2.72,0,0,6.43,38.69,9.86,53.68,.56,2.4-.2,2.53-1.64,2.63-4.95,.37-18.96-1.52-30.75-2.92-14.64-1.72-19.28-3.46-19.69-1.99s16.5,3.85,20.08,4.39c3.58,.52,39.36,4.51,47.76,5.05,7.94,.51,82.48,5.93,98.74,6.25,1.17,.03,2.26,.51,3.12,1.3,1.18,1.1,3.56,2.57,8.16,2.97,7.58,.66,19.83-4.26,19.83-4.26,0,0,15.16,.52,21.55-.27,6.38-.79,7.08-2.43,7.45-3.85,1.06-3.99-10.66-11.8-27.68-20.21Zm-4.64,19.05c-.98,.21-1.41-.66-2.7-2.82-2.66-4.46-9.17-5.92-12.99-6.85-1.39-.34-2.62-.86-2.25-2.1,.3-.98,1.95-.71,4.46-.34,3.56,.53,10.56,2.7,13.03,6.59,2.14,3.37,1.54,5.28,.45,5.52Z"/>
  </g>
  <rect class="cls-1" x=".04" y="0" width="434.43" height="334.49"/>
</svg>